#!OML:ASF H:\Male1\Project 1\Capture day 1\Session 1\Male1.ASF
:FULLY-SPECIFIED
:DEGREES
148
root -5.42428 13.2137 4.78397 159.745 -74.328 -129.255
lowerback 48.5845 4.26996 -6.53514
upperback 17.1109 -1.80633 -3.98793
thorax -1.19721 -2.17153 -0.544072
lowerneck 0.452273 10.6712 8.82923
upperneck -18.5888 13.401 -13.2665
head -4.03404 6.89002 -5.86391
rclavicle -1.04958e-013 -6.36111e-015
rhumerus -29.3587 7.60221 -89.947
rradius 75.5517
rwrist -52.9862
rhand -31.9707 14.6891
rfingers 7.12502
rthumb -5.22044 -15.2266
lclavicle -1.04958e-013 -6.36111e-015
lhumerus 60.1533 4.75574 58.8584
lradius 30.5548
lwrist -1.8036
lhand -46.662 41.3834
lfingers 7.12502
lthumb -19.3823 70.4374
rfemur -75.2313 7.74033 38.5322
rtibia 65.9758
rfoot -19.966 -12.6778
rtoes -19.7354
lfemur -79.9921 8.39055 -12.8828
ltibia 79.9994
lfoot -28.3214 12.263
ltoes -3.48946
149
root -5.45377 13.2274 4.77631 160.447 -74.314 -129.665
lowerback 48.5443 4.26473 -6.3916
upperback 17.1024 -1.7435 -4.01445
thorax -1.21105 -2.12722 -0.658839
lowerneck 0.57656 10.6398 9.00127
upperneck -18.7161 13.3691 -13.2831
head -4.08285 6.86429 -5.91051
rclavicle 1.59028e-014 -7.79236e-014
rhumerus -29.4009 7.53088 -89.9008
rradius 75.4633
rwrist -52.7089
rhand -32.0405 14.8076
rfingers 7.12502
rthumb -5.2878 -15.1065
lclavicle 1.59028e-014 -7.79236e-014
lhumerus 59.7544 4.41786 57.8232
lradius 31.9652
lwrist 0.619721
lhand -46.5136 41.3979
lfingers 7.12502
lthumb -19.2396 70.4662
rfemur -75.3202 7.9255 38.3688
rtibia 65.8475
rfoot -20.0686 -12.7518
rtoes -19.6995
lfemur -80.0404 8.36368 -12.9261
ltibia 79.8296
lfoot -28.4615 12.3124
ltoes -3.23568
150
root -5.48098 13.2415 4.76838 161.199 -74.3313 -130.157
lowerback 48.5084 4.26456 -6.23482
upperback 17.0875 -1.66931 -4.05036
thorax -1.23334 -2.07535 -0.793659
lowerneck 0.837856 10.5823 9.31273
upperneck -18.9517 13.2991 -13.4215
head -4.1706 6.8212 -6.03051
rclavicle -3.18055e-015 5.12864e-014
rhumerus -29.4738 7.41705 -89.8637
rradius 75.362
rwrist -52.357
rhand -32.1472 14.7009
rfingers 7.12502
rthumb -5.39084 -15.2105
lclavicle -3.18055e-015 5.12864e-014
lhumerus 59.397 4.0147 56.85
lradius 33.3764
lwrist 3.5668
lhand -46.1619 41.4912
lfingers 7.12502
lthumb -18.9014 70.5929
rfemur -75.3952 8.08147 38.1632
rtibia 65.7216
rfoot -20.174 -12.8165
rtoes -19.664
lfemur -80.0579 8.30704 -13.0029
ltibia 79.6435
lfoot -28.5746 12.3919
ltoes -3.127
151
root -5.50593 13.2561 4.7605 161.959 -74.3678 -130.698
lowerback 48.4903 4.26942 -6.09446
upperback 17.0619 -1.59663 -4.07757
thorax -1.26815 -2.0252 -0.911331
lowerneck 1.18717 10.5203 9.70599
upperneck -19.2495 13.2205 -13.6642
head -4.27813 6.77762 -6.20429
rclavicle 0 -2.46493e-014
rhumerus -29.5645 7.32927 -89.8185
rradius 75.2461
rwrist -51.9533
rhand -32.3062 14.5555
rfingers 7.12502
rthumb -5.54435 -15.352
lclavicle 0 -2.46493e-014
lhumerus 59.0887 3.66818 56.0869
lradius 34.6959
lwrist 7.19794
lhand -45.4758 41.4661
lfingers 7.12502
lthumb -18.2414 70.6308
rfemur -75.4447 8.20748 37.934
rtibia 65.598
rfoot -20.2859 -12.8487
rtoes -19.5741
lfemur -80.0354 8.22322 -13.0917
ltibia 79.4477
lfoot -28.6738 12.4812
ltoes -3.06672
152
root -5.52804 13.2706 4.75264 162.681 -74.4176 -131.227
lowerback 48.4735 4.27034 -5.99187
upperback 17.0261 -1.54 -4.07928
thorax -1.31102 -1.986 -0.978688
lowerneck 1.53433 10.4687 10.0661
upperneck -19.5382 13.1541 -13.93
head -4.38196 6.74451 -6.38023
rclavicle -3.18055e-015 7.15625e-015
rhumerus -29.6538 7.32546 -89.7451
rradius 75.12
rwrist -51.5395
rhand -32.4955 14.3956
rfingers 7.12502
rthumb -5.7271 -15.507
lclavicle -3.18055e-015 7.15625e-015
lhumerus 58.8171 3.49102 55.6813
lradius 35.8592
lwrist 11.5159
lhand -44.3029 41.3697
lfingers 7.12502
lthumb -17.1128 70.636
rfemur -75.4877 8.30345 37.7089
rtibia 65.4748
rfoot -20.3816 -12.8561
rtoes -19.4777
lfemur -79.9976 8.1175 -13.1752
ltibia 79.2499
lfoot -28.7619 12.5631
ltoes -2.95968
153
root -5.54711 13.2847 4.74472 163.374 -74.4722 -131.746
lowerback 48.4477 4.26581 -5.97031
upperback 16.9803 -1.51701 -4.04085
thorax -1.35785 -1.96969 -0.953872
lowerneck 1.8325 10.4507 10.2875
upperneck -19.7806 13.13 -14.1618
head -4.47176 6.73959 -6.51919
rclavicle 1.27222e-014 2.22639e-014
rhumerus -29.7239 7.48519 -89.628
rradius 74.9833
rwrist -51.1499
rhand -32.6885 14.341
rfingers 7.12502
rthumb -5.9135 -15.5565
lclavicle 1.27222e-014 2.22639e-014
lhumerus 58.5384 3.57287 55.6846
lradius 36.8332
lwrist 16.2308
lhand -42.7601 41.2919
lfingers 7.12502
lthumb -15.6273 70.6806
rfemur -75.5314 8.37566 37.4994
rtibia 65.3514
rfoot -20.4479 -12.8501
rtoes -19.3955
lfemur -79.9572 8.00447 -13.2545
ltibia 79.0614
lfoot -28.8351 12.6399
ltoes -2.79149
154
root -5.56326 13.2975 4.73644 163.984 -74.5187 -132.197
lowerback 48.3958 4.25054 -6.01792
upperback 16.9362 -1.5287 -3.96841
thorax -1.39431 -1.97654 -0.848483
lowerneck 2.03261 10.4794 10.3528
upperneck -19.9468 13.164 -14.3353
head -4.53129 6.76922 -6.60514
rclavicle -2.54444e-014 5.00937e-014
rhumerus -29.7531 7.79885 -89.4807
rradius 74.8316
rwrist -50.7966
rhand -32.7954 14.3839
rfingers 7.12502
rthumb -6.0167 -15.5107
lclavicle -2.54444e-014 5.00937e-014
lhumerus 58.2478 3.91928 56.0627
lradius 37.616
lwrist 20.9076
lhand -41.0675 41.2808
lfingers 7.12502
lthumb -13.9966 70.7895
rfemur -75.5736 8.43401 37.3295
rtibia 65.2292
rfoot -20.4917 -12.8398
rtoes -19.3073
lfemur -79.9304 7.90645 -13.3161
ltibia 78.8959
lfoot -28.8796 12.72
ltoes -2.61135
155
root -5.57686 13.3085 4.72754 164.424 -74.5522 -132.484
lowerback 48.3148 4.21442 -6.12384
upperback 16.8939 -1.58118 -3.86298
thorax -1.42018 -2.00859 -0.666247
lowerneck 2.15091 10.5443 10.1885
upperneck -20.0689 13.2457 -14.3697
head -4.58696 6.82672 -6.60558
rclavicle 9.54166e-015 9.97899e-014
rhumerus -29.7273 8.26584 -89.314
rradius 74.6614
rwrist -50.4991
rhand -32.7481 14.4499
rfingers 7.12502
rthumb -5.971 -15.446
lclavicle 9.54166e-015 9.97899e-014
lhumerus 57.9267 4.51675 56.7129
lradius 38.2168
lwrist 25.0559
lhand -39.4241 41.3711
lfingers 7.12502
lthumb -12.4125 70.9826
rfemur -75.6134 8.47791 37.2324
rtibia 65.1092
rfoot -20.5097 -12.8474
rtoes -19.3228
lfemur -79.9303 7.83386 -13.3378
ltibia 78.7613
lfoot -28.8892 12.805
ltoes -2.46267
156
root -5.58858 13.3172 4.71804 164.675 -74.5716 -132.602
lowerback 48.2251 4.1642 -6.2175
upperback 16.8571 -1.64405 -3.7584
thorax -1.43914 -2.04549 -0.48679
lowerneck 2.25329 10.6167 9.98087
upperneck -20.1886 13.3398 -14.3558
head -4.64557 6.88916 -6.58371
rclavicle 1.36764e-013 4.25399e-014
rhumerus -29.6606 8.72698 -89.1668
rradius 74.4799
rwrist -50.2558
rhand -32.5513 14.5342
rfingers 7.12502
rthumb -5.78097 -15.3669
lclavicle 1.36764e-013 4.25399e-014
lhumerus 57.6444 5.20105 57.4856
lradius 38.6441
lwrist 28.4198
lhand -38.0075 41.3393
lfingers 7.12502
lthumb -11.0465 71.0286
rfemur -75.6334 8.50275 37.2131
rtibia 64.9927
rfoot -20.501 -12.8683
rtoes -19.4451
lfemur -79.9424 7.78718 -13.3164
ltibia 78.6588
lfoot -28.8712 12.8921
ltoes -2.36017
